<?xml version="1.0" encoding="utf-8"?>
<!-- Generator: Adobe Illustrator 20.1.0, SVG Export Plug-In . SVG Version: 6.00 Build 0)  -->
<svg version="1.1" id="Layer_1" xmlns="http://www.w3.org/2000/svg" xmlns:xlink="http://www.w3.org/1999/xlink" x="0px" y="0px"
	 viewBox="0 0 174 63" style="enable-background:new 0 0 174 63;" xml:space="preserve">
<style type="text/css">
	.st0{fill:#404042;}
	.st1{clip-path:url(#SVGID_2_);fill:#404042;}
	.st2{enable-background:new    ;}
	.st3{clip-path:url(#SVGID_4_);}
	.st4{clip-path:url(#SVGID_6_);fill:#404042;}
	.st5{clip-path:url(#SVGID_8_);fill:#404042;}
	.st6{clip-path:url(#SVGID_10_);fill:#404042;}
	.st7{clip-path:url(#SVGID_12_);fill:#404042;}
	.st8{clip-path:url(#SVGID_14_);fill:#404042;}
	.st9{clip-path:url(#SVGID_16_);fill:#404042;}
	.st10{clip-path:url(#SVGID_18_);fill:#404042;}
	.st11{clip-path:url(#SVGID_20_);fill:#404042;}
	.st12{clip-path:url(#SVGID_22_);fill:#404042;}
	.st13{clip-path:url(#SVGID_24_);}
	.st14{clip-path:url(#SVGID_26_);fill:#404042;}
	.st15{clip-path:url(#SVGID_28_);fill:#404042;}
	.st16{clip-path:url(#SVGID_30_);fill:#404042;}
	.st17{clip-path:url(#SVGID_32_);fill:#404042;}
	.st18{clip-path:url(#SVGID_34_);fill:#404042;}
</style>
<g>
	<g>
		<path id="n9uhd" class="st0" d="M22.5,1.7l-9.1,32.5L4.3,1.7H0.2l1,3.5v35.7h1.2V8.7l9.4,32.5h0.8l9.7-34.7v34.5H26V1.7H22.5z"/>
	</g>
</g>
<g>
	<g>
		<g>
			<path id="n9uhf" class="st0" d="M54.5,0.6C42.5,0.6,34,8.9,34,21.1c0,11.9,8.4,20.3,20.6,20.3c11.8,0,20.5-8.5,20.5-20.5
				C75.1,9.2,66.6,0.6,54.5,0.6 M54.6,40.5c-10.1,0-16.5-7.8-16.5-19.7c0-11.7,6.6-19.3,16.3-19.3C64.4,1.5,71,9.1,71,21.1
				C71,32.8,64.5,40.5,54.6,40.5"/>
		</g>
	</g>
</g>
<g>
	<g>
		<path id="n9uhg" class="st0" d="M91.4,20.8c4.8-0.6,8.4-3.9,8.4-10c0-5.1-2.8-9.4-9.5-9.4H83v39.2h3.6V21.2H89
			c2.4,0,4.2,1.7,5.6,6.5l3.3,12.9h3.9l-3.5-12.6C97,23.4,94.4,21.4,91.4,20.8L91.4,20.8z M86.7,20.2V2.4h2.8c5,0,6.3,3.6,6.3,8.5
			c0,6.2-2.4,9.2-6.3,9.2L86.7,20.2z"/>
	</g>
</g>
<g>
	<g>
		<path id="n9uhh" class="st0" d="M113.3,21.2h9.4v-1h-9.4V2.4h11.6v-1h-15.2v39.2H126v-1h-12.8V21.2z"/>
	</g>
</g>
<g>
	<g>
		<path id="n9uhi" class="st0" d="M135.9,1.4h-3.7v39.2h16.3v-1h-12.6L135.9,1.4z"/>
	</g>
</g>
<g>
	<g>
		<path id="n9uhj" class="st0" d="M165,1.4h-3.8l0.5,2.3l-8.5,36.9h1.2l3.1-13.7h9.4l3.1,13.7h3.8L165,1.4z M157.8,25.9l4.5-19.6
			l4.4,19.6H157.8z"/>
	</g>
</g>
<g>
	<defs>
		<path id="SVGID_1_" d="M121.3,58.4h2.2c0.5,0,0.9-0.2,1.2-0.5c0.3-0.3,0.5-0.7,0.5-1.2c0-0.5-0.2-0.9-0.5-1.2
			c-0.3-0.3-0.7-0.4-1.2-0.4h-2.2V58.4z M120.5,62.5v-8.1h3c0.7,0,1.3,0.2,1.7,0.7c0.5,0.5,0.7,1,0.7,1.7c0,0.7-0.2,1.2-0.7,1.7
			c-0.5,0.4-1,0.7-1.8,0.7h-2.2v3.3H120.5z"/>
	</defs>
	<use xlink:href="#SVGID_1_"  style="overflow:visible;fill-rule:evenodd;clip-rule:evenodd;fill:#404042;"/>
	<clipPath id="SVGID_2_">
		<use xlink:href="#SVGID_1_"  style="overflow:visible;"/>
	</clipPath>
	<rect x="115.5" y="49.4" class="st1" width="15.5" height="18.1"/>
</g>
<g>
	<g class="st2">
		<g>
			<g>
				<defs>
					<path id="SVGID_3_" d="M18.1,58.3c0-1.3-0.2-2.2-0.5-2.7c-0.3-0.5-0.9-0.8-1.6-0.8c-1.4,0-2.1,1-2.1,3.5c0,2.5,0.7,3.5,2.1,3.5
						C17.5,61.9,18.1,60.9,18.1,58.3 M13.2,58.3c0-2.9,1.1-4.2,2.8-4.2c1.8,0,2.8,1.3,2.8,4.2c0,2.9-1.1,4.2-2.8,4.2
						C14.3,62.5,13.2,61.2,13.2,58.3"/>
				</defs>
				<use xlink:href="#SVGID_3_"  style="overflow:visible;fill-rule:evenodd;clip-rule:evenodd;fill:#404042;"/>
				<clipPath id="SVGID_4_">
					<use xlink:href="#SVGID_3_"  style="overflow:visible;"/>
				</clipPath>
				<g class="st3">
					<defs>
						<rect id="SVGID_5_" x="13.2" y="53.5" width="6" height="9"/>
					</defs>
					<use xlink:href="#SVGID_5_"  style="overflow:visible;fill:#404042;"/>
					<clipPath id="SVGID_6_">
						<use xlink:href="#SVGID_5_"  style="overflow:visible;"/>
					</clipPath>
					<rect x="8.2" y="49.1" class="st4" width="15.7" height="18.4"/>
				</g>
			</g>
		</g>
	</g>
</g>
<g>
	<defs>
		<polygon id="SVGID_7_" points="27.1,54.4 23.4,59.1 23.4,54.4 22.6,54.4 22.6,62.5 23.4,62.5 23.4,60.1 24.7,58.4 27.6,62.5 
			28.6,62.5 25.2,57.8 28,54.4 		"/>
	</defs>
	<use xlink:href="#SVGID_7_"  style="overflow:visible;fill-rule:evenodd;clip-rule:evenodd;fill:#404042;"/>
	<clipPath id="SVGID_8_">
		<use xlink:href="#SVGID_7_"  style="overflow:visible;"/>
	</clipPath>
	<rect x="17.6" y="49.4" class="st5" width="16" height="18.2"/>
</g>
<g>
	<defs>
		<path id="SVGID_9_" d="M31.1,54.4h0.8v5.4c0,1.3,0.8,2.1,2.2,2.1c1.4,0,2.2-0.9,2.2-2.1v-5.4h0.8v5.3c0,0.8-0.3,1.5-0.8,2.1
			c-0.6,0.5-1.3,0.8-2.2,0.8c-0.9,0-1.6-0.3-2.1-0.8c-0.6-0.5-0.8-1.2-0.8-2.1V54.4z"/>
	</defs>
	<use xlink:href="#SVGID_9_"  style="overflow:visible;fill-rule:evenodd;clip-rule:evenodd;fill:#404042;"/>
	<clipPath id="SVGID_10_">
		<use xlink:href="#SVGID_9_"  style="overflow:visible;"/>
	</clipPath>
	<rect x="26.1" y="49.4" class="st6" width="16" height="18.2"/>
</g>
<g>
	<defs>
		<polygon id="SVGID_11_" points="40.5,54.4 40.5,62.5 45.6,62.5 45.6,61.8 41.3,61.8 41.3,54.4 		"/>
	</defs>
	<use xlink:href="#SVGID_11_"  style="overflow:visible;fill-rule:evenodd;clip-rule:evenodd;fill:#404042;"/>
	<clipPath id="SVGID_12_">
		<use xlink:href="#SVGID_11_"  style="overflow:visible;"/>
	</clipPath>
	<rect x="35.5" y="49.4" class="st7" width="15.1" height="18.2"/>
</g>
<g>
	<defs>
		<polygon id="SVGID_13_" points="49,54.4 49,55.1 51.2,55.1 51.2,61.8 49,61.8 49,62.5 54.2,62.5 54.2,61.8 52,61.8 52,55.1 
			54.2,55.1 54.2,54.4 		"/>
	</defs>
	<use xlink:href="#SVGID_13_"  style="overflow:visible;fill-rule:evenodd;clip-rule:evenodd;fill:#404042;"/>
	<clipPath id="SVGID_14_">
		<use xlink:href="#SVGID_13_"  style="overflow:visible;"/>
	</clipPath>
	<rect x="44" y="49.4" class="st8" width="15.1" height="18.2"/>
</g>
<g>
	<defs>
		<path id="SVGID_15_" d="M58.3,59.8c0.2,1.4,1,2.1,2.4,2.1c1.2,0,2.1-0.5,2.1-1.6c0-0.5-0.2-0.9-0.4-1.1c-0.3-0.3-0.8-0.5-1.6-0.7
			c-0.8-0.2-1.3-0.4-1.9-0.7c-0.5-0.3-0.8-0.8-0.8-1.5c0-0.5,0.2-1,0.7-1.3c0.4-0.4,1.1-0.6,1.9-0.6c1.3,0,2.3,0.7,2.6,1.9l-0.7,0.1
			c-0.1-0.3-0.3-0.6-0.6-0.9c-0.3-0.3-0.7-0.4-1.3-0.4c-1.1,0-1.8,0.5-1.8,1.2c0,0.5,0.3,0.8,0.7,1c0.2,0.1,0.3,0.1,0.5,0.2l0.3,0.1
			l0.6,0.2l0.2,0c0.3,0.1,0.5,0.1,0.6,0.2c0.2,0.1,0.4,0.1,0.6,0.3c0.3,0.1,0.5,0.3,0.6,0.4c0.3,0.3,0.6,0.8,0.6,1.5
			c0,0.7-0.3,1.2-0.8,1.7c-0.5,0.4-1.2,0.6-2.1,0.6c-0.9,0-1.7-0.3-2.1-0.6c-0.7-0.6-1-1.4-1-2L58.3,59.8z"/>
	</defs>
	<use xlink:href="#SVGID_15_"  style="overflow:visible;fill-rule:evenodd;clip-rule:evenodd;fill:#404042;"/>
	<clipPath id="SVGID_16_">
		<use xlink:href="#SVGID_15_"  style="overflow:visible;"/>
	</clipPath>
	<rect x="52.6" y="49.4" class="st9" width="16" height="18.2"/>
</g>
<g>
	<defs>
		<polygon id="SVGID_17_" points="66.1,54.4 66.1,55.1 69.1,55.1 69.1,62.5 69.9,62.5 69.9,55.1 72.9,55.1 72.9,54.4 		"/>
	</defs>
	<use xlink:href="#SVGID_17_"  style="overflow:visible;fill-rule:evenodd;clip-rule:evenodd;fill:#404042;"/>
	<clipPath id="SVGID_18_">
		<use xlink:href="#SVGID_17_"  style="overflow:visible;"/>
	</clipPath>
	<rect x="61.1" y="49.4" class="st10" width="16.8" height="18.2"/>
</g>
<g>
	<defs>
		<polygon id="SVGID_19_" points="76.4,54.4 76.4,55.1 78.5,55.1 78.5,61.8 76.4,61.8 76.4,62.5 81.5,62.5 81.5,61.8 79.3,61.8 
			79.3,55.1 81.5,55.1 81.5,54.4 		"/>
	</defs>
	<use xlink:href="#SVGID_19_"  style="overflow:visible;fill-rule:evenodd;clip-rule:evenodd;fill:#404042;"/>
	<clipPath id="SVGID_20_">
		<use xlink:href="#SVGID_19_"  style="overflow:visible;"/>
	</clipPath>
	<rect x="71.4" y="49.4" class="st11" width="15.1" height="18.2"/>
</g>
<g>
	<defs>
		<path id="SVGID_21_" d="M95.1,58.1c-1.1,0.4-1.6,1.1-1.6,1.9c0,1.2,0.9,1.8,2.2,1.8c0.4,0,0.7,0,1-0.1c0.6-0.2,1.2-0.7,1.2-1.4
			L95.1,58.1z M99.9,61.9l-1.3-1c-0.2,0.6-0.6,1-1.1,1.3c-0.5,0.3-1.1,0.4-1.8,0.4c-0.9,0-1.6-0.2-2.1-0.7c-0.6-0.4-0.9-1.1-0.9-1.9
			c0-1,0.6-1.8,1.8-2.4c-0.7-0.6-1-1.1-1-1.6c0-0.6,0.2-1,0.7-1.4c0.5-0.3,1-0.5,1.5-0.5c0.5,0,1,0.1,1.3,0.4
			c0.4,0.3,0.6,0.6,0.7,1.1L97,55.7c-0.2-0.6-0.6-0.9-1.3-0.9c-0.8,0-1.4,0.3-1.4,1.2c0,0.4,0.3,0.8,0.5,1l0.2,0.2l3,2.4v-1.7h0.7
			v2.3l1.6,1.3L99.9,61.9z"/>
	</defs>
	<use xlink:href="#SVGID_21_"  style="overflow:visible;fill-rule:evenodd;clip-rule:evenodd;fill:#404042;"/>
	<clipPath id="SVGID_22_">
		<use xlink:href="#SVGID_21_"  style="overflow:visible;"/>
	</clipPath>
	<rect x="87.7" y="49.1" class="st12" width="17.7" height="18.4"/>
</g>
<g>
	<g class="st2">
		<g>
			<g>
				<defs>
					<path id="SVGID_23_" d="M116.3,58.3c0-1.3-0.2-2.2-0.5-2.7c-0.4-0.5-0.9-0.8-1.7-0.8c-1.5,0-2.2,1-2.2,3.5
						c0,2.5,0.7,3.5,2.2,3.5C115.6,61.9,116.3,60.9,116.3,58.3 M111.1,58.3c0-2.9,1.1-4.2,3-4.2c1.9,0,3,1.3,3,4.2
						c0,2.9-1.1,4.2-3,4.2C112.2,62.5,111.1,61.2,111.1,58.3"/>
				</defs>
				<use xlink:href="#SVGID_23_"  style="overflow:visible;fill-rule:evenodd;clip-rule:evenodd;fill:#404042;"/>
				<clipPath id="SVGID_24_">
					<use xlink:href="#SVGID_23_"  style="overflow:visible;"/>
				</clipPath>
				<g class="st13">
					<defs>
						<rect id="SVGID_25_" x="110.2" y="53.5" width="7" height="9"/>
					</defs>
					<use xlink:href="#SVGID_25_"  style="overflow:visible;fill:#404042;"/>
					<clipPath id="SVGID_26_">
						<use xlink:href="#SVGID_25_"  style="overflow:visible;"/>
					</clipPath>
					<rect x="106.1" y="49.1" class="st14" width="16" height="18.4"/>
				</g>
			</g>
		</g>
	</g>
</g>
<g>
	<defs>
		<polygon id="SVGID_27_" points="128.4,54.4 128.4,55.1 131.4,55.1 131.4,62.5 132.2,62.5 132.2,55.1 135.2,55.1 135.2,54.4 		"/>
	</defs>
	<use xlink:href="#SVGID_27_"  style="overflow:visible;fill-rule:evenodd;clip-rule:evenodd;fill:#404042;"/>
	<clipPath id="SVGID_28_">
		<use xlink:href="#SVGID_27_"  style="overflow:visible;"/>
	</clipPath>
	<rect x="123.4" y="49.4" class="st15" width="16.8" height="18.2"/>
</g>
<g>
	<defs>
		<polygon id="SVGID_29_" points="138.7,54.4 138.7,55.1 140.8,55.1 140.8,61.8 138.7,61.8 138.7,62.5 143.8,62.5 143.8,61.8 
			141.6,61.8 141.6,55.1 143.8,55.1 143.8,54.4 		"/>
	</defs>
	<use xlink:href="#SVGID_29_"  style="overflow:visible;fill-rule:evenodd;clip-rule:evenodd;fill:#404042;"/>
	<clipPath id="SVGID_30_">
		<use xlink:href="#SVGID_29_"  style="overflow:visible;"/>
	</clipPath>
	<rect x="133.7" y="49.4" class="st16" width="15.1" height="18.2"/>
</g>
<g>
	<defs>
		<polygon id="SVGID_31_" points="151.7,54.4 148,59.1 148,54.4 147.2,54.4 147.2,62.5 148,62.5 148,60.1 149.3,58.4 152.2,62.5 
			153.2,62.5 149.8,57.8 152.6,54.4 		"/>
	</defs>
	<use xlink:href="#SVGID_31_"  style="overflow:visible;fill-rule:evenodd;clip-rule:evenodd;fill:#404042;"/>
	<clipPath id="SVGID_32_">
		<use xlink:href="#SVGID_31_"  style="overflow:visible;"/>
	</clipPath>
	<rect x="142.2" y="49.4" class="st17" width="16" height="18.2"/>
</g>
<g>
	<defs>
		<path id="SVGID_33_" d="M158.3,55.2L160,60h-3.4L158.3,55.2z M157.9,54.4l-3,8.2h0.8l0.7-2h3.9l0.7,2h0.8l-3-8.2H157.9z"/>
	</defs>
	<use xlink:href="#SVGID_33_"  style="overflow:visible;fill-rule:evenodd;clip-rule:evenodd;fill:#404042;"/>
	<clipPath id="SVGID_34_">
		<use xlink:href="#SVGID_33_"  style="overflow:visible;"/>
	</clipPath>
	<rect x="149.9" y="49.4" class="st18" width="16.8" height="18.2"/>
</g>
</svg>
